<svg width="272" height="226" viewBox="0 0 272 226" fill="none" xmlns="http://www.w3.org/2000/svg">
<path d="M133.5 34.8317V225.832C133.5 203.188 101.317 185 61 185C43.794 185 27.9783 188.343 15.5 193.936V15.8317C15.5 15.8317 49.8777 4.5537 71.5 7.83175C96.7749 11.6635 133.5 34.8317 133.5 34.8317Z" fill="#1E1E1E"/>
<path d="M130 221.832C123.664 215.143 118.65 208.923 112 204.5C78.9632 182.525 41.08 187.741 6.50003 203.832V108.332V15.5L0.5 18.3317V108.332V217C17.141 203.756 55.9648 190.777 95.5 203.41C107.12 207.124 118.802 213.05 130 221.832Z" fill="#1E1E1E"/>
<path d="M133.5 28.8317C133.5 28.8317 97.1542 4.01195 71.5 1.33175C46.5531 -1.27456 6.50003 12.3317 6.50003 12.3317V15.5M6.50003 15.5V108.332V203.832C41.08 187.741 78.9632 182.525 112 204.5C118.65 208.923 123.664 215.143 130 221.832C118.802 213.05 107.12 207.124 95.5 203.41C55.9648 190.777 17.141 203.756 0.5 217V108.332V18.3317L6.50003 15.5Z" stroke="black"/>
<path d="M138 34.8317V225.832C138 203.188 170.183 185 210.5 185C227.706 185 243.522 188.343 256 193.936V15.8317C256 15.8317 221.622 4.5537 200 7.83175C174.725 11.6635 138 34.8317 138 34.8317Z" fill="#1E1E1E"/>
<path d="M141.5 221.832C147.836 215.143 152.85 208.923 159.5 204.5C192.537 182.525 230.42 187.741 265 203.832V108.332V15.5L271 18.3317V108.332V217C254.359 203.756 215.535 190.777 176 203.41C164.38 207.124 152.698 213.05 141.5 221.832Z" fill="#1E1E1E"/>
<path d="M138 28.8317C138 28.8317 174.346 4.01195 200 1.33175C224.947 -1.27456 265 12.3317 265 12.3317V15.5M265 15.5V108.332V203.832C230.42 187.741 192.537 182.525 159.5 204.5C152.85 208.923 147.836 215.143 141.5 221.832C152.698 213.05 164.38 207.124 176 203.41C215.535 190.777 254.359 203.756 271 217V108.332V18.3317L265 15.5Z" stroke="black"/>
<path d="M51.3125 141.359V88.8125C51.3125 87.8125 51.25 86.8125 51.125 85.8125C51.0312 84.7812 50.875 83.8438 50.6562 83C50.4688 82.4375 50.0938 82.0156 49.5312 81.7344C48.9688 81.4531 48.3125 81.25 47.5625 81.125C46.8438 81 46.0781 80.9219 45.2656 80.8906C44.4844 80.8594 43.75 80.7969 43.0625 80.7031C42.4062 80.6094 41.8594 80.4688 41.4219 80.2812C40.9844 80.0625 40.7656 79.7188 40.7656 79.25C40.7656 79.0625 40.8281 78.8438 40.9531 78.5938C41.1094 78.3438 41.375 78.2188 41.75 78.2188H43.4375C44.8438 78.2188 46.0469 78.25 47.0469 78.3125C48.0469 78.3438 48.9844 78.3906 49.8594 78.4531C50.7344 78.4844 51.6094 78.5156 52.4844 78.5469C53.3594 78.5781 54.375 78.5938 55.5312 78.5938C56.3438 78.5938 57.125 78.5781 57.875 78.5469C58.625 78.5156 59.375 78.5 60.125 78.5C60.9062 78.4688 61.7031 78.4375 62.5156 78.4062C63.3281 78.375 64.2188 78.3594 65.1875 78.3594H68.2344C68.5781 78.3594 68.875 78.3906 69.125 78.4531C69.4062 78.5156 69.5469 78.75 69.5469 79.1562C69.5469 79.6562 69.3281 80.0156 68.8906 80.2344C68.4531 80.4531 67.9062 80.6094 67.25 80.7031C66.625 80.7656 65.9219 80.8281 65.1406 80.8906C64.3906 80.9219 63.6875 81.0156 63.0312 81.1719C62.4062 81.2969 61.875 81.5312 61.4375 81.875C61 82.1875 60.7812 82.6719 60.7812 83.3281V111.781C61.0312 111.781 61.3281 111.703 61.6719 111.547C62.0156 111.359 62.3594 111.125 62.7031 110.844C63.0469 110.562 63.375 110.25 63.6875 109.906C64.0312 109.562 64.3281 109.219 64.5781 108.875C65.0156 108.25 65.4062 107.688 65.75 107.188C66.0938 106.656 66.4219 106.172 66.7344 105.734C67.0781 105.266 67.3906 104.828 67.6719 104.422C67.9844 103.984 68.3125 103.547 68.6562 103.109C70.5625 100.578 72.4531 98.1562 74.3281 95.8438C76.2344 93.5312 78.2031 91.1719 80.2344 88.7656C80.8594 87.9531 81.3594 87.1406 81.7344 86.3281C82.1406 85.4844 82.3438 84.6094 82.3438 83.7031C82.3438 83.2344 82.125 82.75 81.6875 82.25C81.25 81.7188 80.75 81.375 80.1875 81.2188C79.8125 81.0938 79.3594 81 78.8281 80.9375C78.3281 80.8438 77.7969 80.7656 77.2344 80.7031C76.6719 80.6406 76.1094 80.5781 75.5469 80.5156C75.0156 80.4219 74.5312 80.2969 74.0938 80.1406C73.8438 80.0781 73.6562 79.9531 73.5312 79.7656C73.4062 79.5781 73.3438 79.3594 73.3438 79.1094C73.3438 78.9844 73.3594 78.8906 73.3906 78.8281C73.4531 78.7656 73.5156 78.6875 73.5781 78.5938C73.6719 78.5312 73.8125 78.4844 74 78.4531C74.2188 78.4219 74.4375 78.4062 74.6562 78.4062C74.875 78.375 75.0781 78.3594 75.2656 78.3594C75.4531 78.3594 75.5781 78.3594 75.6406 78.3594C76.7969 78.3594 77.8281 78.3906 78.7344 78.4531C79.6719 78.4844 80.5625 78.5469 81.4062 78.6406C82.25 78.7031 83.0625 78.7656 83.8438 78.8281C84.625 78.8594 85.4531 78.875 86.3281 78.875C87.8281 78.875 89.3281 78.7969 90.8281 78.6406C92.3281 78.4531 93.5938 78.3594 94.625 78.3594H98C98.7812 78.3594 99.375 78.5 99.7812 78.7812C100.062 78.9375 100.203 79.0938 100.203 79.25C100.203 79.3438 100.141 79.4219 100.016 79.4844C98.7656 79.9844 97.4688 80.4219 96.125 80.7969C94.8125 81.1719 93.5156 81.625 92.2344 82.1562C91.8594 82.3125 91.4531 82.5156 91.0156 82.7656C90.6094 83.0156 90.1875 83.2969 89.75 83.6094C89.3125 83.8906 88.9062 84.1875 88.5312 84.5C88.1562 84.7812 87.8281 85.0625 87.5469 85.3438C86.4844 86.375 85.6094 87.2188 84.9219 87.875C84.2344 88.5312 83.6406 89.1094 83.1406 89.6094C82.6719 90.1094 82.2344 90.5625 81.8281 90.9688C81.4531 91.375 81.0312 91.8281 80.5625 92.3281C79.8125 93.1719 79.0781 94 78.3594 94.8125C77.6719 95.5938 76.9531 96.4062 76.2031 97.25C75.4844 98.0938 74.7344 98.9844 73.9531 99.9219C73.1719 100.828 72.3281 101.812 71.4219 102.875C70.9844 103.312 70.5781 103.734 70.2031 104.141C69.8594 104.516 69.6875 104.953 69.6875 105.453C69.6875 105.578 69.8438 105.875 70.1562 106.344C70.5 106.781 70.9219 107.328 71.4219 107.984C71.9219 108.609 72.4688 109.297 73.0625 110.047C73.6875 110.766 74.2812 111.469 74.8438 112.156C75.4062 112.844 75.9062 113.469 76.3438 114.031C76.8125 114.594 77.1406 115 77.3281 115.25C79.0469 117.125 80.6719 119.031 82.2031 120.969C83.7344 122.875 85.3594 124.859 87.0781 126.922C87.5781 127.516 88.25 128.297 89.0938 129.266C89.9375 130.234 90.8594 131.297 91.8594 132.453C92.8594 133.578 93.9062 134.719 95 135.875C96.125 137.031 97.2031 138.125 98.2344 139.156C99.2969 140.156 100.281 141.016 101.188 141.734C102.125 142.453 102.906 142.922 103.531 143.141C103.844 143.297 104.422 143.484 105.266 143.703C106.141 143.891 107.031 144.109 107.938 144.359C108.844 144.609 109.641 144.875 110.328 145.156C111.047 145.406 111.406 145.656 111.406 145.906C111.406 146.125 111.312 146.297 111.125 146.422C110.938 146.547 110.703 146.641 110.422 146.703C110.172 146.797 109.875 146.844 109.531 146.844C109.219 146.875 108.922 146.891 108.641 146.891H107.562C106.938 146.891 106.344 146.859 105.781 146.797C105.25 146.734 104.703 146.656 104.141 146.562C103.578 146.469 102.953 146.391 102.266 146.328C101.609 146.266 100.859 146.234 100.016 146.234H91.0156C90.7344 146.234 90.4375 146.109 90.125 145.859C88.875 144.266 87.6094 142.734 86.3281 141.266C85.0469 139.766 83.7344 138.266 82.3906 136.766C81.0469 135.234 79.6875 133.688 78.3125 132.125C76.9375 130.531 75.5312 128.859 74.0938 127.109C72.4375 125.047 71.0625 123.328 69.9688 121.953C68.875 120.578 67.875 119.375 66.9688 118.344C66.0938 117.312 65.2344 116.375 64.3906 115.531C63.5469 114.688 62.5625 113.781 61.4375 112.812C61.375 112.781 61.3125 112.75 61.25 112.719C61.1875 112.688 61.0938 112.672 60.9688 112.672C60.8438 112.672 60.7812 112.781 60.7812 113V140.141C60.7812 140.984 61.1094 141.672 61.7656 142.203C62.4531 142.734 63.25 143.156 64.1562 143.469C65.0938 143.75 66.0156 143.953 66.9219 144.078C67.8594 144.172 68.5781 144.219 69.0781 144.219C69.5469 144.219 69.8906 144.312 70.1094 144.5C70.3281 144.688 70.4375 144.922 70.4375 145.203C70.4375 145.734 70.2188 146.047 69.7812 146.141C69.3438 146.266 68.8125 146.328 68.1875 146.328C66.7812 146.328 65.5469 146.297 64.4844 146.234C63.4219 146.203 62.4375 146.156 61.5312 146.094C60.6562 146.031 59.7812 145.984 58.9062 145.953C58.0625 145.891 57.1562 145.859 56.1875 145.859C55.0625 145.859 53.8906 145.875 52.6719 145.906C51.4531 145.906 50.2656 145.922 49.1094 145.953C47.9531 145.953 46.8438 145.969 45.7812 146C44.75 146 43.8281 146 43.0156 146C42.1094 146 41.6562 145.656 41.6562 144.969C41.6562 144.75 41.6719 144.5 41.7031 144.219C41.7656 143.938 41.9375 143.781 42.2188 143.75C42.7188 143.688 43.2656 143.641 43.8594 143.609C44.4531 143.578 45.0156 143.562 45.5469 143.562H46.5781C47.2344 143.562 47.9219 143.531 48.6406 143.469C49.3906 143.375 49.9844 143.219 50.4219 143C51.0156 142.656 51.3125 142.109 51.3125 141.359Z" fill="white"/>
<path d="M205.594 86.375V140.75C205.594 141.469 205.984 142.016 206.766 142.391C207.578 142.766 208.5 143.047 209.531 143.234C210.594 143.422 211.641 143.562 212.672 143.656C213.703 143.719 214.453 143.797 214.922 143.891C215.203 144.234 215.359 144.484 215.391 144.641C215.453 144.766 215.484 144.969 215.484 145.25C215.484 145.531 215.391 145.766 215.203 145.953C215.047 146.141 214.844 146.281 214.594 146.375C214.344 146.5 214.062 146.594 213.75 146.656C213.469 146.719 213.203 146.75 212.953 146.75C212.328 146.75 211.375 146.688 210.094 146.562C208.812 146.438 207.453 146.297 206.016 146.141C204.609 146.016 203.234 145.891 201.891 145.766C200.578 145.641 199.562 145.578 198.844 145.578C197.625 145.578 196.453 145.594 195.328 145.625C194.203 145.656 193.031 145.781 191.812 146C191.562 146 191.156 146.047 190.594 146.141C190.062 146.266 189.469 146.391 188.812 146.516C188.156 146.641 187.5 146.75 186.844 146.844C186.219 146.969 185.703 147.031 185.297 147.031C184.984 147.031 184.75 146.891 184.594 146.609C184.438 146.359 184.359 146.156 184.359 146C184.359 145.594 184.578 145.266 185.016 145.016C185.484 144.766 185.875 144.609 186.188 144.547C186.375 144.453 186.719 144.344 187.219 144.219C187.75 144.094 188.328 143.969 188.953 143.844C189.578 143.688 190.172 143.547 190.734 143.422C191.328 143.266 191.797 143.125 192.141 143C192.641 142.875 193.078 142.75 193.453 142.625C193.828 142.469 194.141 142.281 194.391 142.062C194.641 141.812 194.828 141.5 194.953 141.125C195.078 140.719 195.141 140.203 195.141 139.578V88.25C195.141 88 195.125 87.7344 195.094 87.4531C195.062 87.1406 195 86.8594 194.906 86.6094C194.812 86.3594 194.672 86.1562 194.484 86C194.297 85.8438 194.031 85.7656 193.688 85.7656H183.188C181.781 85.7656 180.578 85.8906 179.578 86.1406C178.578 86.3594 177.656 86.7188 176.812 87.2188C175.781 87.75 174.734 88.4688 173.672 89.375C172.641 90.2812 171.844 91.2344 171.281 92.2344C171.188 92.3906 171.094 92.6094 171 92.8906C170.938 93.1719 170.844 93.4531 170.719 93.7344C170.594 94.0156 170.453 94.2656 170.297 94.4844C170.141 94.7031 169.953 94.8125 169.734 94.8125C169.609 94.8125 169.469 94.7188 169.312 94.5312C169.156 94.3438 169 94.1094 168.844 93.8281C168.688 93.5156 168.547 93.1875 168.422 92.8438C168.328 92.4688 168.281 92.1094 168.281 91.7656C168.281 91.0781 168.422 90.3594 168.703 89.6094C169.016 88.8594 169.391 88.0625 169.828 87.2188C170.266 86.375 170.734 85.4688 171.234 84.5C171.734 83.5 172.188 82.4062 172.594 81.2188V80.375C172.594 80.1562 172.641 79.9219 172.734 79.6719C172.891 79.3906 173.109 79.2344 173.391 79.2031C173.703 79.1406 174.031 79.1094 174.375 79.1094C174.656 79.1094 174.891 79.2031 175.078 79.3906C175.266 79.5469 175.453 79.7344 175.641 79.9531C175.828 80.1719 176.031 80.4062 176.25 80.6562C176.5 80.875 176.797 81.0312 177.141 81.125C177.516 81.2188 178.234 81.3438 179.297 81.5C180.359 81.625 181.812 81.75 183.656 81.875C185.531 82 187.812 82.1094 190.5 82.2031C193.188 82.2969 196.359 82.3438 200.016 82.3438C200.891 82.3438 201.891 82.3281 203.016 82.2969C204.141 82.2344 205.297 82.1719 206.484 82.1094C207.703 82.0469 208.906 82 210.094 81.9688C211.281 81.9062 212.375 81.875 213.375 81.875C214.156 81.875 214.859 81.9062 215.484 81.9688C216.109 82.0312 216.781 82.125 217.5 82.25C217.875 82.3125 218.281 82.375 218.719 82.4375C219.156 82.5 219.594 82.5625 220.031 82.625C220.469 82.6562 220.875 82.6875 221.25 82.7188C221.625 82.75 221.922 82.7656 222.141 82.7656C222.734 82.7656 223.031 82.4375 223.031 81.7812C223.031 81.4375 223.141 81.1094 223.359 80.7969C223.641 80.4531 224.016 80.0469 224.484 79.5781C224.953 79.1094 225.359 78.875 225.703 78.875C225.953 78.875 226.219 79.0469 226.5 79.3906C226.812 79.7344 227.109 80.1562 227.391 80.6562C227.703 81.125 227.984 81.6094 228.234 82.1094C228.516 82.5781 228.75 82.9531 228.938 83.2344C229.156 83.7344 229.312 84.3438 229.406 85.0625C229.5 85.75 229.609 86.2812 229.734 86.6562C229.859 86.9375 230.125 87.3906 230.531 88.0156C230.969 88.6406 231.406 89.3125 231.844 90.0312C232.281 90.7188 232.672 91.3906 233.016 92.0469C233.391 92.7031 233.578 93.2188 233.578 93.5938C233.578 94.4062 233.219 94.8125 232.5 94.8125C232.062 94.8125 231.531 94.5625 230.906 94.0625C230.312 93.5625 229.672 92.9844 228.984 92.3281C228.328 91.6719 227.656 91.0156 226.969 90.3594C226.281 89.6719 225.641 89.1406 225.047 88.7656C224.641 88.5156 224.078 88.2344 223.359 87.9219C222.672 87.6094 221.938 87.2969 221.156 86.9844C220.375 86.6719 219.609 86.4062 218.859 86.1875C218.109 85.9688 217.469 85.8281 216.938 85.7656C216.094 85.6094 215.219 85.5312 214.312 85.5312C213.406 85.5 212.531 85.4844 211.688 85.4844H209.016C208.922 85.4844 208.688 85.5 208.312 85.5312C207.969 85.5625 207.594 85.625 207.188 85.7188C206.781 85.7812 206.406 85.875 206.062 86C205.75 86.0938 205.594 86.2188 205.594 86.375Z" fill="white"/>
</svg>
